# Blender v2.78 (sub 0) OBJ File: ''
# www.blender.org
o Cube
v 1.510000 -1.510000 -1.509999
v 1.510000 -1.510000 1.510000
v -1.510000 -1.510000 1.509999
v -1.509999 -1.510000 -1.510000
v 1.510000 1.510000 -1.509999
v 1.509999 1.510000 1.510000
v -1.510000 1.510000 1.509999
v -1.509999 1.510000 -1.510000
v 1.510000 -1.510000 -1.509999
v 1.510000 -1.510000 -1.509999
v 1.510000 -1.510000 1.510000
v 1.510000 -1.510000 1.510000
v -1.509999 -1.510000 -1.510000
v -1.509999 -1.510000 -1.510000
v 1.510000 1.510000 -1.509999
v 1.510000 1.510000 -1.509999
v -1.510000 -1.510000 1.509999
v -1.510000 -1.510000 1.509999
v 1.509999 1.510000 1.510000
v 1.509999 1.510000 1.510000
v -1.510000 1.510000 1.509999
v -1.510000 1.510000 1.509999
v -1.509999 1.510000 -1.510000
v -1.509999 1.510000 -1.510000
vt 1.0000 0.0000
vt 0.0000 1.0000
vt 0.0000 0.0000
vt 0.0000 0.0000
vt 1.0000 1.0000
vt 0.0000 1.0000
vt 1.0000 0.0000
vt 0.0000 1.0000
vt 0.0000 0.0000
vt 1.0000 0.0000
vt 0.0000 1.0000
vt 0.0000 0.0000
vt 1.0000 0.0000
vt 0.0000 1.0000
vt 0.0000 0.0000
vt 1.0000 0.0000
vt 0.0000 1.0000
vt 0.0000 0.0000
vt 1.0000 1.0000
vt 1.0000 0.0000
vt 1.0000 1.0000
vt 1.0000 1.0000
vt 1.0000 1.0000
vt 1.0000 1.0000
vn 0.0000 -1.0000 0.0000
vn 0.0000 1.0000 0.0000
vn 1.0000 -0.0000 0.0000
vn 0.0000 -0.0000 1.0000
vn -1.0000 -0.0000 -0.0000
vn 0.0000 0.0000 -1.0000
s off
f 11/1/1 13/2/1 9/3/1
f 16/4/2 22/5/2 20/6/2
f 15/7/3 12/8/3 10/9/3
f 6/10/4 18/11/4 2/12/4
f 7/13/5 14/14/5 3/15/5
f 1/16/6 8/17/6 5/18/6
f 11/1/1 17/19/1 13/2/1
f 16/4/2 24/20/2 22/5/2
f 15/7/3 19/21/3 12/8/3
f 6/10/4 21/22/4 18/11/4
f 7/13/5 23/23/5 14/14/5
f 1/16/6 4/24/6 8/17/6
